<svg width="19" height="19" viewBox="0 0 19 19" fill="none" xmlns="http://www.w3.org/2000/svg">
<path d="M3.3219 4.52197C2.78736 5.50368 2.5 6.61204 2.5 7.75002C2.5 13 9.25 17.5 9.25 17.5C9.25 17.5 11.2118 16.1921 13.0202 14.1639" stroke="#F0F0F0" stroke-width="2" stroke-linecap="round" stroke-linejoin="round"/>
<path d="M15.2204 10.9483C15.6974 9.93953 16 8.86157 16 7.75C16 5.95979 15.2888 4.2429 14.023 2.97703C12.7571 1.71116 11.0402 1 9.25 1C8.16415 1 7.10527 1.26164 6.15765 1.75" stroke="#F0F0F0" stroke-width="2" stroke-linecap="round" stroke-linejoin="round"/>
<path d="M9.75 9.94425C9.58919 9.98073 9.42185 10 9.25 10C8.00736 10 7 8.99264 7 7.75C7 7.57815 7.01927 7.41081 7.05575 7.25" stroke="#F0F0F0" stroke-width="2" stroke-linecap="round" stroke-linejoin="round"/>
<path d="M9.25 5.5C10.4926 5.5 11.5 6.50736 11.5 7.75" stroke="#F0F0F0" stroke-width="2" stroke-linecap="round" stroke-linejoin="round"/>
<path d="M1 1L17.5 17.5" stroke="#F0F0F0" stroke-width="2" stroke-linecap="round" stroke-linejoin="round"/>
</svg>
