<svg width="160" height="160" viewBox="0 0 160 160" fill="none" xmlns="http://www.w3.org/2000/svg">
<path d="M6.66666 40.0002V146.667L53.3333 120L106.667 146.667L153.333 120V13.3335L106.667 40.0002L53.3333 13.3335L6.66666 40.0002Z" stroke="#333333" stroke-width="2" stroke-linecap="round" stroke-linejoin="round"/>
<path d="M53.3333 13.3335V36.0002" stroke="#333333" stroke-width="2" stroke-linecap="round" stroke-linejoin="round"/>
<path d="M53.3333 64V120" stroke="#333333" stroke-width="2" stroke-linecap="round" stroke-linejoin="round"/>
<path d="M107 40L107 103" stroke="#333333" stroke-width="2" stroke-linecap="round" stroke-linejoin="round"/>
<path d="M106.667 132V146.667" stroke="#333333" stroke-width="2" stroke-linecap="round" stroke-linejoin="round"/>
<path d="M61.84 42.6099C61.3292 42.0989 60.7228 41.6935 60.0554 41.417C59.3879 41.1404 58.6725 40.998 57.95 40.998C57.2275 40.998 56.5121 41.1404 55.8446 41.417C55.1772 41.6935 54.5708 42.0989 54.06 42.6099L53 43.6699L51.94 42.6099C50.9083 41.5782 49.509 40.9986 48.05 40.9986C46.591 40.9986 45.1917 41.5782 44.16 42.6099C43.1283 43.6416 42.5487 45.0408 42.5487 46.4999C42.5487 47.9589 43.1283 49.3582 44.16 50.3899L45.22 51.4499L53 59.2299L60.78 51.4499L61.84 50.3899C62.351 49.8791 62.7563 49.2727 63.0329 48.6052C63.3095 47.9378 63.4518 47.2224 63.4518 46.4999C63.4518 45.7774 63.3095 45.062 63.0329 44.3945C62.7563 43.7271 62.351 43.1206 61.84 42.6099Z" fill="#FFCEBF" stroke="#333333" stroke-width="2" stroke-linecap="round" stroke-linejoin="round"/>
<path d="M115.84 110.61C115.329 110.099 114.723 109.694 114.055 109.417C113.388 109.14 112.672 108.998 111.95 108.998C111.228 108.998 110.512 109.14 109.845 109.417C109.177 109.694 108.571 110.099 108.06 110.61L107 111.67L105.94 110.61C104.908 109.578 103.509 108.999 102.05 108.999C100.591 108.999 99.1917 109.578 98.16 110.61C97.1283 111.642 96.5487 113.041 96.5487 114.5C96.5487 115.959 97.1283 117.358 98.16 118.39L99.22 119.45L107 127.23L114.78 119.45L115.84 118.39C116.351 117.879 116.756 117.273 117.033 116.605C117.309 115.938 117.452 115.222 117.452 114.5C117.452 113.777 117.309 113.062 117.033 112.395C116.756 111.727 116.351 111.121 115.84 110.61Z" fill="#71D4FB" stroke="#333333" stroke-width="2" stroke-linecap="round" stroke-linejoin="round"/>
</svg>
