<svg width="40" height="40" viewBox="0 0 40 40" fill="none" xmlns="http://www.w3.org/2000/svg">
<path d="M12.292 20.7725L14.504 21.2244L13.4287 22.3781L12.292 20.7725Z" fill="#777777"/>
<path d="M14.5313 23.9361L13.5572 22.5597L17.9436 17.854L14.5313 23.9361Z" fill="#777777"/>
<path d="M14.057 25.334L16.3114 26.6085L16.3083 26.6212L16.357 26.6344L16.3599 26.6359V26.6351L18.5271 27.2247L18.2022 29.4596L14.4099 32.4585L13.9506 31.426L14.057 25.334Z" fill="#777777"/>
<path d="M13.8967 25.2435L13.9303 25.1831L13.9247 25.1935L13.8967 25.2435Z" fill="#777777"/>
<path d="M13.7417 30.9547L6.09599 13.7627H7.06319L14.4132 24.1464L13.8753 25.1056L13.8392 25.1548V25.328L13.7417 30.9547Z" fill="#777777"/>
<path d="M7.64301 20.0428L9.39534 24.2074L7.59534 23.4543L3.75334 19.314L7.64301 20.0428Z" fill="#777777"/>
<path d="M2.23667 17.2518L4.54268 15.097L5.89061 13.8379L5.95779 13.9883L6.01144 14.1087L6.17264 14.4719L2.23664 17.2518" fill="#777777"/>
<path d="M23.9012 22.0679L24.5799 22.7993L24.7762 22.8589H24.7772L24.7899 22.8628L25.6405 23.1421L31.1756 12.5015L23.9012 22.0679Z" fill="#777777" stroke="#777777"/>
<path d="M18.4227 29.4562L18.7391 27.2822L23.4117 28.5531L22.2594 30.683L18.4227 29.4562Z" fill="#777777"/>
<path d="M7.73367 19.7568L5.7273 15.0528L6.26323 14.6743L13.6992 31.396L12.9533 31.9933L7.73367 19.7568Z" fill="#777777"/>
<path d="M14.3877 25.2701L18.8063 24.8053L18.8056 24.7997L24.2896 23.4541L28.8402 24.9508L38.4522 32.4168L16.4406 26.4308L14.3877 25.2701Z" fill="#777777"/>
<path d="M18.872 24.5596L18.6016 17.4072L24.0529 23.2889L18.872 24.5596Z" fill="#777777"/>
<path d="M2.56333 16.6482L4.8102 13.8198L5.5322 13.8749L2.56333 16.6482Z" fill="#777777"/>
<path d="M14.1407 25.0775L18.3877 17.5078L18.6556 24.6025L14.1407 25.0775Z" fill="#777777"/>
</svg>
