<svg width="18" height="18" viewBox="0 0 18 18" fill="none" xmlns="http://www.w3.org/2000/svg">
<path d="M17 13L9 13" stroke="#333333" stroke-width="2"/>
<path d="M1 5L9 5" stroke="#333333" stroke-width="2"/>
<path d="M3 15C1.89543 15 1 14.1046 1 13C1 11.8954 1.89543 11 3 11C4.10457 11 5 11.8954 5 13C5 14.1046 4.10457 15 3 15Z" stroke="#333333" stroke-width="2"/>
<path d="M15 3C16.1046 3 17 3.89543 17 5C17 6.10457 16.1046 7 15 7C13.8954 7 13 6.10457 13 5C13 3.89543 13.8954 3 15 3Z" stroke="#333333" stroke-width="2"/>
</svg>
